<?xml version="1.0" encoding="utf-8"?>
<!-- Generator: Adobe Illustrator 22.1.0, SVG Export Plug-In . SVG Version: 6.00 Build 0)  -->
<svg version="1.1" xmlns="http://www.w3.org/2000/svg" xmlns:xlink="http://www.w3.org/1999/xlink" x="0px"
	 y="0px" viewBox="0 0 400 78" style="enable-background:new 0 0 400 78;" xml:space="preserve">
<style type="text/css">
	.logotype-glyph{fill:#87C1F8;}
</style>
<g>
	<path class="logotype-glyph" d="M24.8,66.3c-10.5,0-16.6-7.8-16.6-20.4c0-12.5,6.2-20.1,16.3-20.1c6.4,0,10.5,2.9,13.2,6.7
		c2.4,3.5,3.5,8,3.5,14.2C41.3,59.6,34.5,66.3,24.8,66.3z M32.7,35.7c-1.6-3.4-5-4.9-8.2-4.9c-3.4,0-6.5,1.6-7.9,4.2
		c-1.2,2.4-1.8,5.5-1.8,10c0,5.4,0.9,10.2,2.4,12.6c1.4,2.3,4.5,3.8,7.8,3.8c4,0,7-2.1,8.3-5.8c0.8-2.4,1.2-4.5,1.2-8.3
		C34.5,41.9,33.9,38.2,32.7,35.7z"/>
	<path class="logotype-glyph" d="M56.5,19.8c-2.6,0-4.7-2.1-4.7-4.6c0-2.6,2.1-4.8,4.7-4.8c2.6,0,4.7,2.1,4.7,4.7S59.1,19.8,56.5,19.8z
		 M53.3,65.3V27.1l6.2-1v39.2H53.3z"/>
	<path class="logotype-glyph" d="M74.1,65.3V18.1c0-4.5-0.8-7.3-1-7.9l6-1.2c0.2,0.6,1,3.8,1,9.1v47.2H74.1z M98,65.3L80.4,43.6L95,27h7.5
		L87.4,43.6L106,65.3H98z"/>
	<path class="logotype-glyph" d="M127.6,66.3c-10.5,0-16.6-7.8-16.6-20.4c0-12.5,6.2-20.1,16.3-20.1c6.4,0,10.5,2.9,13.2,6.7
		c2.4,3.5,3.5,8,3.5,14.2C144,59.6,137.2,66.3,127.6,66.3z M135.4,35.7c-1.6-3.4-5-4.9-8.2-4.9c-3.4,0-6.5,1.6-7.9,4.2
		c-1.2,2.4-1.8,5.5-1.8,10c0,5.4,0.9,10.2,2.4,12.6c1.4,2.3,4.5,3.8,7.8,3.8c4,0,7-2.1,8.3-5.8c0.8-2.4,1.2-4.5,1.2-8.3
		C137.2,41.9,136.6,38.2,135.4,35.7z"/>
	<path class="logotype-glyph" d="M177.3,65.3V39.4c0-4.1-0.3-5.1-1.4-6.4c-0.8-1-2.5-1.6-4.2-1.6c-3.1,0-7.9,2.5-10.6,5.4v28.6h-5.9V35.8
		c0-4.9-1.2-7.5-1.5-8.1l5.9-1.6c0.3,0.5,1.4,3.2,1.4,6c4-4,8-5.9,12.1-5.9c4.2,0,7.9,2.2,9.4,5.6c0.6,1.4,0.9,2.9,0.9,4.5v29.1
		L177.3,65.3L177.3,65.3z"/>
	<path class="logotype-glyph" d="M211.9,66.3c-10.5,0-16.6-7.8-16.6-20.4c0-12.5,6.2-20.1,16.3-20.1c6.4,0,10.5,2.9,13.2,6.7
		c2.4,3.5,3.5,8,3.5,14.2C228.3,59.6,221.5,66.3,211.9,66.3z M219.7,35.7c-1.6-3.4-5-4.9-8.2-4.9c-3.4,0-6.5,1.6-7.9,4.2
		c-1.2,2.4-1.8,5.5-1.8,10c0,5.4,0.9,10.2,2.4,12.6c1.4,2.3,4.5,3.8,7.8,3.8c4,0,7-2.1,8.3-5.8c0.8-2.4,1.2-4.5,1.2-8.3
		C221.5,41.9,221,38.2,219.7,35.7z"/>
	<path class="logotype-glyph" d="M281.2,65.3V37c0-3.7-1.7-5.6-4.9-5.6c-3.5,0-6.2,2.2-10.2,5.9v28H260V38.1c0-2.3-0.2-3.9-1.1-4.9
		c-0.9-1.1-2.2-1.5-3.9-1.5c-2.9,0-5.8,1.5-9.8,5.1v28.6h-5.8V35.6c0-4.9-1.1-7.6-1.4-8.2l5.9-1.4c0.3,0.6,1.4,3.3,1.4,5.7
		c2.5-2.8,7.2-5.8,11.2-5.8c3.8,0,7.5,2.3,8.9,6.4c3.7-3.9,8.4-6.4,12.3-6.4c5.7,0,9.6,4.3,9.6,10.4v29
		C287.3,65.3,281.2,65.3,281.2,65.3z"/>
	<path class="logotype-glyph" d="M303.7,19.8c-2.6,0-4.7-2.1-4.7-4.6c0-2.6,2.1-4.8,4.7-4.8s4.7,2.1,4.7,4.7S306.4,19.8,303.7,19.8z
		 M300.5,65.3V27.1l6.2-1v39.2H300.5z"/>
	<path class="logotype-glyph" d="M321.4,65.3V18.1c0-4.5-0.8-7.3-1-7.9l6-1.2c0.2,0.6,1,3.8,1,9.1v47.2H321.4z M345.2,65.3l-17.6-21.7L342.2,27
		h7.5l-15.1,16.6l18.6,21.7H345.2z"/>
	<path class="logotype-glyph" d="M386.9,66.8c-2.6-0.8-4.5-2.9-5.2-5.6c-3.7,3.7-6.7,5.2-11.1,5.2c-9.5,0-12.3-5.8-12.3-10.9
		c0-8.7,7.5-13.8,20.3-13.8c0.8,0,1.5,0,2.7,0.1V39c0-3.4-0.2-4.8-1.2-6c-1.2-1.4-2.8-2.1-5.2-2.1c-4.3,0-9.8,2.3-12.2,4.5l-3-4.3
		c5.1-3.4,10.5-5.2,16.1-5.2c5.3,0,9,2.1,10.6,6c0.8,2.1,0.9,5,0.8,8.5L386.9,53c-0.2,6.2,0.2,7.9,3.1,9.4L386.9,66.8z M378.1,45.7
		c-9.7,0-13.2,3.3-13.2,9.2c0,4.5,2.2,7,6.6,7c3.9,0,7.5-2.4,9.3-6l0.2-10C380.3,45.8,379,45.7,378.1,45.7z"/>
</g>
</svg>
