<?xml version="1.0" encoding="utf-8"?>
<!-- Generator: Adobe Illustrator 22.1.0, SVG Export Plug-In . SVG Version: 6.00 Build 0)  -->
<svg version="1.1" xmlns="http://www.w3.org/2000/svg" xmlns:xlink="http://www.w3.org/1999/xlink" x="0px"
	 y="0px" viewBox="0 0 400 400" style="enable-background:new 0 0 400 400;" xml:space="preserve">
<style type="text/css">
	.symbol-background{fill:#004DE4;}
	.symbol-logo{fill:#FFFFFF;}
</style>
<g id="Color">
	<rect class="symbol-background" width="400" height="400"/>
</g>
<g>
	<path class="symbol-logo" d="M216,74.6c24.4,2.8,110.8,11.6,110.8,123.2S239.6,318.2,216,320.6v35.6h-32.8v-35.6
		c-23.6-2.4-110-11.6-110-122.8S160.4,77.4,183.2,75V43.8H216V74.6z M183.2,91.4c-18.4,3.2-74,12-74,106.4c0,45.6,13.6,72.4,30,87.2
		c16.4,14.4,32.8,17.2,44,19.2V91.4z M216,304.2c10.8-1.6,28-4.4,44.4-18.8c26-23.2,30.4-60.4,30.4-87.6
		c0-94.8-55.2-103.6-74.8-106.4V304.2z"/>
</g>
</svg>
